<?xml version="1.0" encoding="UTF-8"?>
<svg width="72px" height="72px" viewBox="0 0 24 24" version="1.1" xmlns="http://www.w3.org/2000/svg" xmlns:xlink="http://www.w3.org/1999/xlink">
    <g stroke="none" stroke-width="1" fill="none" fill-rule="evenodd">
        <g id="01_Assets/Icons/consult">
            <g id="icon_consult">
                <g  opacity="0.1">
                    <rect  x="0" y="0" width="24" height="24"></rect>
                </g>
                <rect  fill="#FFD600" fill-rule="nonzero" x="15" y="15" width="5" height="5"></rect>
                <path d="M17,12 L17,17 L12,17 L12,12 L17,12 L17,12 Z M17,11 L12,11 C11.4477153,11 11,11.4477153 11,12 L11,17 C11,17.5522847 11.4477153,18 12,18 L17,18 C17.5522847,18 18,17.5522847 18,17 L18,12 C18,11.4477153 17.5522847,11 17,11 Z M6,8 C4.8954305,8 4,7.1045695 4,6 C4,4.8954305 4.8954305,4 6,4 C7.1045695,4 8,4.8954305 8,6 C8,6.53043298 7.78928632,7.03914081 7.41421356,7.41421356 C7.03914081,7.78928632 6.53043298,8 6,8 Z M6,5 C5.44771525,5 5,5.44771525 5,6 C5,6.55228475 5.44771525,7 6,7 C6.55228475,7 7,6.55228475 7,6 C7,5.44771525 6.55228475,5 6,5 Z M18.82,8.43 L15.63,5.24 L14.92,6 L18.11,9.19 L18.82,8.43 Z M16.81,5 L19,7.19 C19.0091506,7.21588167 19.0091506,7.24411833 19,7.27 L8.27,18 L6,18 L6,15.74 L16.72,5 C16.745505,4.98886869 16.774495,4.98886869 16.8,5 L16.8,5 L16.81,5 Z M16.8,3.99999614 C16.5059143,3.99921407 16.2242258,4.11838996 16.02,4.33 L5.02,15.33 L5.02,18.9999961 L8.68,18.9999961 L19.68,7.99999614 C19.8790743,7.80117361 19.9909339,7.53135832 19.9909339,7.25 C19.9909339,6.96864168 19.8790743,6.69882639 19.68,6.49999614 L17.48,4.31 C17.3019142,4.12266975 17.0582117,4.01157009 16.8,3.99999614 L16.8,3.99999614 Z"  fill="#000000" fill-rule="nonzero"></path>
            </g>
        </g>
    </g>
</svg>