<?xml version="1.0" encoding="UTF-8"?>
<svg width="72px" height="72px" viewBox="0 0 24 24" version="1.1" xmlns="http://www.w3.org/2000/svg" xmlns:xlink="http://www.w3.org/1999/xlink">
    <g stroke="none" stroke-width="1" fill="none" fill-rule="evenodd">
        <g id="01_Assets/Icons/branding">
            <g id="Group-5">
                <polygon id="Fill-1" points="0 24 24 24 24 0 0 0"></polygon>
                <polygon id="Fill-2" fill="#FFD600" points="10 3 10 10.5 4 6.75"></polygon>
                <path d="M14,12 C14,13.103 13.103,14 12,14 C10.897,14 10,13.103 10,12 C10,10.897 10.897,10 12,10 C12.37,10 12.712,10.108 13.01,10.283 L11.646,11.646 C11.451,11.842 11.451,12.158 11.646,12.354 C11.744,12.451 11.872,12.5 12,12.5 C12.128,12.5 12.256,12.451 12.354,12.354 L13.717,10.99 C13.892,11.288 14,11.63 14,12 L14,12 Z M18,12 C18,15.309 15.309,18 12,18 C8.691,18 6,15.309 6,12 C6,8.691 8.691,6 12,6 C13.475,6 14.824,6.537 15.87,7.423 L13.734,9.559 C13.244,9.21 12.647,9 12,9 C10.343,9 9,10.343 9,12 C9,13.657 10.343,15 12,15 C13.657,15 15,13.657 15,12 C15,11.353 14.79,10.756 14.441,10.266 L16.577,8.13 C17.463,9.176 18,10.525 18,12 L18,12 Z M16,4 L16,5 L18.293,5 L16.579,6.714 C15.351,5.649 13.753,5 12,5 C8.134,5 5,8.134 5,12 C5,13.753 5.649,15.351 6.714,16.579 L3.793,19.5 L4.5,20.207 L7.421,17.286 C8.649,18.351 10.247,19 12,19 C15.866,19 19,15.866 19,12 C19,10.247 18.351,8.648 17.286,7.421 L19,5.707 L19,8 L20,8 L20,4 L16,4 Z" id="Fill-3" fill="#000000"></path>
            </g>
        </g>
    </g>
</svg>