<?xml version="1.0" encoding="UTF-8"?>
<svg width="72px" height="72px" viewBox="0 0 72 72" version="1.1" xmlns="http://www.w3.org/2000/svg" xmlns:xlink="http://www.w3.org/1999/xlink">
    <g id="Styles-&amp;-Assets-develop" stroke="none" stroke-width="1" fill="none" fill-rule="evenodd">
        <g  transform="translate(-93.000000, -490.000000)">
            <g id="01_Assets/Icons/develop" transform="translate(93.000000, 490.000000)">
                <g id="icon_developer">
                    <g  opacity="0.1" fill="#FFFFFF" fill-rule="nonzero">
                        <rect  x="0" y="0" width="72" height="72"></rect>
                    </g>
                    <circle  fill="#FFD600" fill-rule="nonzero" cx="48" cy="54" r="9"></circle>
                    <path d="M36,15.9 C36.5282586,15.9054862 37.0457016,16.0503702 37.5,16.32 L52.5,24.87 C53.4319026,25.4080229 54.004272,26.4039457 54.0000237,27.48 L54.0000237,44.52 C54.004272,45.5960543 53.4319026,46.5919771 52.5,47.13 L37.5,55.68 C36.5717968,56.2158984 35.4282032,56.2158984 34.5,55.68 L19.5,47.13 C18.5680974,46.5919771 17.995728,45.5960543 17.9999763,44.52 L17.9999763,27.48 C17.995728,26.4039457 18.5680974,25.4080229 19.5,24.87 L34.5,16.32 C34.9542984,16.0503702 35.4717414,15.9054862 36,15.9 L36,15.9 Z M36,12.9 C34.9462206,12.90187 33.9115189,13.1812395 33,13.71 L18,22.26 C16.1361948,23.3360458 14.991456,25.3278914 14.9999525,27.48 L14.9999525,44.52 C14.991456,46.6721086 16.1361948,48.6639542 18,49.74 L33,58.29 C34.8564065,59.3617968 37.1435935,59.3617968 39,58.29 L54,49.74 C55.8638052,48.6639542 57.008544,46.6721086 57.0000475,44.52 L57.0000475,27.48 C57.008544,25.3278914 55.8638052,23.3360458 54,22.26 L39,13.71 C38.0884811,13.1812395 37.0537794,12.90187 36,12.9 Z M45,43.95 L42.42,42.45 L46.26,36 L42.54,29.55 L45.12,28.05 L49.74,36 L45,43.95 Z M40.8,29.52 L38.16,28.08 L30.33,42.48 L32.97,43.92 L40.8,29.52 Z M29.46,42.45 L25.74,36 L29.46,29.55 L27,28.05 L22.26,36 L27,43.95 L29.46,42.45 Z"  fill="#000000" fill-rule="nonzero"></path>
                </g>
            </g>
        </g>
    </g>
</svg>