<?xml version="1.0" encoding="UTF-8"?>
<svg width="72px" height="72px" viewBox="0 0 24 24" version="1.1" xmlns="http://www.w3.org/2000/svg" xmlns:xlink="http://www.w3.org/1999/xlink">
    <g stroke="none" stroke-width="1" fill="none" fill-rule="evenodd">
        <g id="01_Assets/Icons/mobile">
            <g id="icon_mobile">
                <g  opacity="0.1">
                    <rect  x="0" y="0" width="24" height="24"></rect>
                </g>
                <circle  fill="#FFD600" fill-rule="nonzero" cx="8" cy="7" r="4"></circle>
                <path d="M16,5 C16.5522847,5 17,5.44771525 17,6 L17,18 C17,18.5522847 16.5522847,19 16,19 L8,19 C7.44771525,19 7,18.5522847 7,18 L7,6 C7,5.44771525 7.44771525,5 8,5 L16,5 L16,5 Z M16,4 L8,4 C6.8954305,4 6,4.8954305 6,6 L6,18 C6,19.1045695 6.8954305,20 8,20 L16,20 C17.1045695,20 18,19.1045695 18,18 L18,6 C18,4.8954305 17.1045695,4 16,4 Z M15,8 L15,16 L9,16 L9,8 L15,8 L15,8 Z M16,7 L8,7 L8,17 L16,17 L16,7 Z"  fill="#000000" fill-rule="nonzero"></path>
            </g>
        </g>
    </g>
</svg>