<?xml version="1.0" encoding="UTF-8"?>
<svg width="72px" height="72px" viewBox="0 0 24 24" version="1.1" xmlns="http://www.w3.org/2000/svg" xmlns:xlink="http://www.w3.org/1999/xlink">
    <g stroke="none" stroke-width="1" fill="none" fill-rule="evenodd">
        <g id="01_Assets/Icons/strategy">
            <g id="icon_strategy">
                <g  opacity="0.1">
                    <rect  x="0" y="0" width="24" height="24"></rect>
                </g>
                <circle  fill="#FFD600" fill-rule="nonzero" cx="6" cy="16" r="3"></circle>
                <path d="M20,14 L15,14 C14.4477153,14 14,14.4477153 14,15 L14,16.29 L11,13.29 L11,10.75 L14.13,8.4 C14.6332534,10.1589715 16.4001027,11.2391682 18.1950967,10.8852737 C19.9900907,10.5313792 21.2147238,8.86139279 21.0126841,7.0430351 C20.8106443,5.22467742 19.2492979,3.86424426 17.4204001,3.91300443 C15.5915023,3.9617646 14.1048633,5.40345998 14,7.23 L11,9.5 L11,9 C11,8.44771525 10.5522847,8 10,8 L5,8 C4.44771525,8 4,8.44771525 4,9 L4,15 C4,15.5522847 4.44771525,16 5,16 L10,16 C10.5522847,16 11,15.5522847 11,15 L11,14.71 L14,17.71 L14,19 C14,19.5522847 14.4477153,20 15,20 L20,20 C20.5522847,20 21,19.5522847 21,19 L21,15 C21,14.4477153 20.5522847,14 20,14 Z M17.5,5 C18.8807119,5 20,6.11928813 20,7.5 C20,8.88071187 18.8807119,10 17.5,10 C16.1192881,10 15,8.88071187 15,7.5 C15,6.11928813 16.1192881,5 17.5,5 Z M10,15 L5,15 L5,9 L10,9 L10,15 Z M20,19 L15,19 L15,15 L20,15 L20,19 Z"  fill="#000000" fill-rule="nonzero"></path>
            </g>
        </g>
    </g>
</svg>