<svg xmlns="http://www.w3.org/2000/svg" viewBox="0 0 875.42 440.54"><defs><style>.cls-1{fill:#f2e94e;opacity:0.69;}.cls-2,.cls-3{fill:#16116d;}.cls-2{opacity:0.65;}</style></defs><title>Asset 7</title><g id="Layer_2" data-name="Layer 2"><g id="Layer_1-2" data-name="Layer 1"><polygon class="cls-1" points="517.54 86.76 467.54 86.76 492.54 111.76 517.54 136.76 517.54 86.76"/><polygon class="cls-2" points="141.54 383.08 141.54 422.76 161.38 402.92 181.22 383.08 141.54 383.08"/><path class="cls-3" d="M208.43,436.53l-26.26.48-.74-39.88,10.8-1.77-.45-24.21-13.11-8.55c-.42,1.37-1.21,3.94-2.23,7.28l-16.17.3c.17,9.23.09,17.74.57,26.21.29,5.07-.5,8.6-7.4,8l.6,33.06-17.73.33c-.2-11-.54-22-.41-32.94,0-1.18,2.64-3,4.3-3.33,2.83-.59,5.86-.26,9.42-.32l-.3-16c-3.07-4.72-4.88-7.52-6.72-10.29-.92-1.39-1.78-3.7-2.9-3.85a5.49,5.49,0,0,0-4.45,2.33c-2.23,4-3.44,8.56-5.86,12.4-2.23,3.52-5.5,6.37-8.32,9.52l-2.81-1.52.35,18.75c-8.17,4.9-14.43,8.68-20.73,12.38a5.37,5.37,0,0,1-3,.95c-9.58-1.16-16.69,1.52-19.81,11.59-.33,1.08-3.09,2-4.74,2-22.38.48-44.77.8-67.15,1.11-.43,0-.86-.48-3.18-1.88a76.1,76.1,0,0,1,7.65-1.11c18.88-.41,37.76-1,56.64-.95,5.79,0,10-1.12,11.79-7,1.71-5.59,5.61-7.35,11.13-6.69,5.67.68,10-1.22,14.29-5.44,3-3,8.34-3.65,13.73-5.78l-.39-21.05C127.9,392,127.7,381,131.21,374c2.23-4.46,4.51-7.46,9.58-6.23,1.81.44,3.49,2.36,4.75,4,2,2.55,3.54,5.42,5.28,8.15l2.8-.84.4,21.68,2.91.06-.61-33.21,17.13-.31c.73-3.15,1.3-5.64,1.91-8.34,5.55-1.65,10.18-1.91,10.08,6l9,1,.6,32.45-10.54,1.59.62,33.65,20-.37-1.39-75.55c13.62,2.88,13.54-7.72,16.15-14.92,2.23-6.15,5.09-9.25,12.75-6.4L233,353.7l23.3-.43c-.22-12.11-.13-23.9-.77-35.66-.39-7.12.08-12.61,9.65-11.1.42-2.73.78-5.05,1.22-7.9l12.32-.23.95,15c3.55.25,7.19-.19,10.27.92s5.51,3.77,7.72,7.62l-30.86.56.84,45.45-23.49.43.71,38.82c15.77-5.58,9-19.45,11-30.6l21.32-.39,1,55.63,32-.59L309,368.08l-12-.76L296.31,333l12.27-2.24L308,297.29c9.8-.18,18.86-.2,27.9-.63,2-.1,3.88-1.69,5.82-2.59-2-1.08-4-3-6.09-3.08-6.14-.32-12.31.07-18.46.19-.41-.66-.83-1.31-1.24-2l18-14.74c2.42,1.78,5.26,3.08,6.92,5.26,3.73,4.92,7.1,9.69,14.53,8.14.48-.1,2.59,4.15,2.59,6.37a6.58,6.58,0,0,1-3.34,5c-2.61,1-5.73.58-9.06.8l.2,10.8,35.44,1.41c.35,3.07.66,5.67,1,8.27,6.5,2.53,6.5,2.53,8.22,15.57l28.76-.53-1-54.13-7.46-1.4c-.35-5.28-.69-10.54-1.07-16.33l-21,.39.73,39.76-26.86.49c-.2-10.46-.8-20.89-.23-31.25.11-2.12,4.64-4,8.38-7-.48,1.18-.13.7-.11.2.43-12.67.67-12,12.86-16.13s23.46-5,34.91,1.17c1.39.74,3.68,1.18,4,2.27,3.13,9.48,7.62,18.94,8.46,28.68,1.6,18.45,1,37.07,1.39,56l-9.54,1.34c.48,14.71-11.49,5.48-17.4,9.75l.45,24.61,21.8-.41,1.25-8,16.56-.31.2,11.17-13.59,1.14.48,26.29,8.26,1.81.43,23.25,8.23-.15c.15-2,.44-3.82.41-5.64q-1.49-83.34-3-166.68c-.23-12.48,2.91-16.27,17.22-20l1.54,83.55,33.2-.61-1.73-93.91-31.52,5.9c-.11-5.54-.49-10.57-.12-15.54a6.18,6.18,0,0,1,3.56-4.29c8.94-3,17.94-5.88,27.11-8,3.4-.78,7.31.64,11.4,1.11,1.37-6.42,0-10.86-7.62-11.4-8.22-.59-9.19-5.35-8.54-12.63,2.11-23.87,3.53-47.8,5.26-72.35l-18.33.33c0,2.41,0,5,.15,7.56,1,21.82,2,43.64,3.22,65.46.85,15.62.46,16.25-16.73,19.81.2-7.67.32-15.12.6-22.57.93-25.6,2.07-51.2,2.77-76.81.15-5.56,1.32-10,6.08-13.13,6.27-4.11,7.86-10,8-17.29.33-22.11,1.33-44.21,2.12-66.31A7.1,7.1,0,0,1,486.85,0c.3,2.59.72,5.17.87,7.77,1.31,22.34,2.77,44.69,3.71,67.05.23,5.51,1.95,9.25,6.85,11.54,6.46,3,8.83,7.93,9.6,15.17,3.72,35.12,8.13,70.16,12.26,105.24.18,1.57.08,3.18.12,5.57l-8.77-1c1.44,4.68,2.6,8.65,4,12.55.16.45,1.48.46,2.24.75,15,5.72,14.94,5.73,15.22,22q.55,31.55,1.16,63.11c.06,3.44.13,6.88.2,10.85l-16.1,1.23c.21,11.26.37,22.25.64,33.23.1,4,.31,8-5.51,7.38-4.45-.49-11.18,3-11.25-5.83,0-4.67-2.46-5.34-6.65-5.75-9.73-1-15.53,1.86-19.58,11.68S469,381.4,469.73,392c.8,12,.58,24.11.81,36.6L539,427.31c-.22-11.84-.43-23.35-.64-34.86q-.43-23.06-.83-46.12c0-2.14-.2-6,.38-6.17,11.74-2.75,2.71-17.85,12.87-21.62,1-.35.74-4.47.71-6.84-.27-18.07-.44-36.15-1.08-54.21-.19-5.29,1.34-7.89,6.63-8.89a56.82,56.82,0,0,0,13.9-4.19c10.21-4.89,19.95-2.42,29.62,1.16,1.79.67,4.1,3.16,4.15,4.87.67,21.22,1,42.45,1.36,64.23l-26.47.48-.69-37.93-1.8-.12c-2.14,12.85-4,25.77-6.65,38.5-.78,3.71-4.16,6.85-6.24,10.32-1.62,2.71-4.16,5.44-4.37,8.3-.52,7.22,0,14.51.2,22.37l11.33-.2-.5-27.4,40.94-.75-.36-19.78,20.33-.38c.34,2.43.67,4.75,1.1,7.78l13.65,2.06.51,28.2-18.45.34c-.55.75-1.18,1.23-1.12,1.59,1.79,10.85-3.37,18.77-11.27,25-13.74,10.84-19,24.54-15.86,41.72.66,3.58.23,7.36.3,11.43l37.91-.7-1.12-60.81L664,364.2l-.18-9.55c-.63-34.25-1.13-68.51-2-102.76-.15-5.79,1.14-8.86,7.24-10.07,6.31-1.25,12.3-4,18.59-5.42a24.19,24.19,0,0,1,10.74.18c6.69,1.65,11.54-1.66,11.53-8.77,0-5.61-.18-11.23-.29-17.38l21.52-.4c.24,3.74.67,7.4.68,11.07,0,4.91-.35,9.48,5.38,12.26,1.67.81,1.94,5.08,2.3,7.83.41,3.16.2,6.39.3,12.12l8.36-14.54c11,20.1,14.82,40.8,12.71,63.25l19.13,2.3c-.22-11.53-.54-22.42-.58-33.3,0-13.59-3-12.91,11.94-15.25,5.27-.83,10.49-2,17-3.22L809.66,322c14.72,2.52,14.71,2.52,15.3,17.05.09,2.1.36,4.2.58,6.74l11.25.91c.06,3.27.12,6.16.17,9.05s.11,5.79.17,9.13l12.8.57L851,422l24.37-.45c0,.72,0,1.43.08,2.14l-27,.5-1-55.49-12.88-.82c-.37-5.87-.74-11.63-1.13-17.93l-11-1.09-.41-22.26-11.87.22c.18,9.85.34,19.47.54,29.09.24,11.78.25,11.78-11.32,14.14-.17,4.64-.35,9.39-.55,14.62l-12.44,1.21.74,39.86-34.12.62c-.28-15-.67-29.74-.65-44.47,0-1.61,2-3.79,3.58-4.75,10.38-6.12,20.45-13.39,33.66-11,1.54.27,3.17,0,6.34-.08-.19-10.49-.13-20.6-.65-30.68-.4-7.76-.77-14.85,11.13-11.85l-1.23-67c-6.67,1.17-13.29,1.88-19.57,3.73-1.59.46-3,4.54-3,7-.07,13.15.34,26.3.6,40.5L758.41,305c-.9-20,1.58-40.37-10.74-58.2-4.36,7.16-8.52,14.27-7.73,23.51.72,8.31.37,16.72.63,25.07.16,5,.86,10.17-7,9.37l.86,47,18.47-2.44-.6-32.68,19.39,3.27c.19,10.57.51,20.52.42,30.46,0,1.69-1.43,4.32-2.85,4.88-12,4.73-24.12,9.07-37.14,13.87-.46-4.68-.82-8.3-1.25-12.55l-12.33.23-.68-37.07,8.91-1.37c1.09-9.31,2.91-18.66,3.07-28a83,83,0,0,1,4.72-25.78c2.76-8.26,1.21-18,1.54-27,0-.26,0-.7-.17-.76-10.78-4.88-5.38-15.57-8.13-23.71l-13.8.25c-4.72,7.9,5.2,20-8.21,26.06,7.85,2.92,7.67,8.81,7.77,15.1.84,54.49,1.91,109,2.92,163.45.05,2.9.1,5.79.17,9.22l-26.8.5-.17-9.59q-1.44-77.69-2.89-155.36c-.17-9.08-2.52-19,10.63-22.82-11.81-1.6-21.31,4.14-32.35,6.33l2.22,120.58-26.55.49,1.13,61.44-44.13.81c-.24-13.09-.58-25.92-.57-38.75,0-1.55,1.77-3.22,3-4.63,2.27-2.66,4.77-5.13,7.09-7.76,8.88-10,21.64-18.07,16.28-34.93l20.37-.38-.41-22.24L630,318.71c-.42-2.5-.81-4.81-1.28-7.58l-13.53.24.36,19.22-40.9.76.51,27.83-18.13.33c-.19-10-.52-19.63-.4-29.27a6.61,6.61,0,0,1,3-5c6.26-2.85,7.76-7.89,8.7-14.17,2.78-18.64,6.18-37.19,9.37-55.78a6.08,6.08,0,0,1,3.08-4.49l1.13,61.23,20.75-.38-1.14-61.62c-15.76-10.65-30.48-1.94-45.29,2.51-1.37.41-2.38,4.35-2.37,6.64.14,18.07.76,36.14.7,54.21,0,3.27-2.45,6.52-3.74,9.78-1,2.6-2.51,5.14-2.87,7.83-.55,4.08,1.18,8.76-5.26,10.08-1.08.23-1.88,4.54-1.85,6.95.3,24.28.81,48.55,1.25,72.83.06,2.91.11,5.83.17,9.34l-74.57,1.37c-.34-18.58-2-37-.44-55,.8-9.07,7.46-17.68,11.8-26.33.61-1.21,3.08-1.82,4.77-2.07,2.66-.37,5.41,0,8.08-.3,8.16-.94,14.9-.21,13.28,11.19l10.66-.19c-.19-9.88-.41-19.72-.54-29.57-.16-12.86-.59-11.06,10.5-11.29,1.33,0,2.66-.22,4.92-.41.09-2.9.3-5.75.25-8.59-.36-22.38-1.15-44.77-1-67.16.07-8.12-2-12.75-10.5-13.42-7.11-.56-9.88-4.68-10.21-11.73-.35-7.8-5.81-11.67-13.56-9.83-8.11,1.93-16.5,3.7-23.85,7.38-2.89,1.45-3.29,7.88-5.49,13.86l33.38-6.21,1.85,100.67-38.82.72-1.51-82.18c-7.92,2.54-12,5.54-11.75,14.26,1.44,55.28,2.26,110.57,3.28,165.87.07,3.42.13,6.85.2,10.75l-14.53.27-.43-23.33-9.35-1.78-.56-30-25.76.48-.56-30.47c4.8-4.92,14.06,2.23,17.86-7.47l-29.89.55c.16,9,0,18,.61,27,.38,5.87-1.22,8.31-7.5,8.08-8.85-.33-17.74.2-27.55.38L356.1,416l-15,.28-.7-38.24-14.06-.82-.72-39.11L386.1,337l-.2-11.15c-7.48.94-7.56-4.41-7.38-10.66l-35.81-1.12c-.41-4.9-.76-9.1-1.14-13.76l-30.21.55c.12,6.79.22,13.44.37,20.09.28,12.57.29,12.57-12.17,14.77l.53,28.38,11.9,1,1.27,69.27-37.75.69-1-55.9-15.36.28c-.55,7.51.58,15.34-2.08,21.55-2.29,5.36-8.9,8.86-15.79,12.63-.16-8.43-.4-16.87-.44-25.3,0-7-2.29-15.74,1.06-20.37,2.58-3.57,12.33-1.94,18.89-2.67a19.27,19.27,0,0,0,3.07-1L263,320.14l26.29-.49c0-.67.07-1.34.1-2l-12.94-1.26-.25-13.66c-8.56-4.7-6.65,2.69-8.14,6.44l-9.23,1.33.83,45.67-29.57.54-.34-18.08-2-.83c-1.4,1.49-3.22,2.78-4.11,4.54a48.59,48.59,0,0,0-3.72,9.8c-1.57,6.27-4.74,10.08-12.89,8.58ZM713.5,424.17c-.29-16.11-.58-31.43-.86-46.74-.77-41.77-1.7-83.54-2.14-125.31-.07-6.69-3.13-9.61-8.69-10s-12.07,7.48-12,13.37q1.47,80.85,3,161.69c0,2.34.38,4.67.61,7.32ZM486.71,51.58l-2-.27c.12,6.45.05,12.9.4,19.34.48,8.88-1.91,16-9.49,21.64-2.45,1.8-3.9,6.23-4.12,9.57-1,15.32-1.46,30.67-2,46-.58,16.32-1,32.64-1.55,49.07,8.77-.71,11.5-4.26,10.84-12.65-1.9-24.17-2.76-48.43-3.95-72.65a44.3,44.3,0,0,1,.45-6l24.32-.45c-1.89,28.07-3.74,55.41-5.58,82.88,1.71.69,2.89,1.45,4.15,1.62,7.87,1,14.05,3.28,13,13.31-.19,1.69,2.48,3.7,3.83,5.56l2.08-1.26c-4.38-36.86-8.73-73.73-13.26-110.58-.23-1.82-1.74-4.34-3.3-5C489.46,87.15,487.4,78.34,488,67.61,488.28,62.3,487.18,56.92,486.71,51.58ZM352.76,413.08,352,372.59l34.72-.64-.58-31.5-57.37,1.05.61,32.84,14,.44.71,38.46Zm70-77.64c5.77,1.74,6.2-1.29,6.09-5.42-.4-15.07.31-30.24-1.22-45.19-1-9.8-5.08-19.29-8-28.86-.28-.94-2.16-1.4-3.31-2.08-13.82-8.09-27-2-40.22,2-1.27.39-2.46,3.94-2.22,5.85.84,6.69-1.09,10.93-8.38,11.14l.52,28.22,20.4-.37L385.67,261l27.29-.5.3,16.48,8.44,1.24Zm372.62,34.84c-14.85-4-26.4,2.1-37.63,9.31-1,.65-2.3,1.92-2.29,2.89.09,13.58.39,27.16.64,40.73l27.8-.51-.73-39.77,12.42-1.3Zm-39.78-50c.17,9.16.19,17.72.55,26.27.17,4-1,5.85-5.26,6.2-5.29.44-10.53,1.54-16.08,2.41l.17,9.47c10.73-3.88,20.81-7.43,30.78-11.27,1.39-.54,3.14-2.55,3.16-3.89.12-9-.18-18.07-.35-27.09Zm52.12,45.52c-.23-12.58-.28-24.06-.85-35.51-.07-1.39-2.92-3.72-4.4-3.66s-4,2.57-4.06,4c-.13,11.46.23,22.92.45,34.86Zm-668.35,39,.55,29.89,10.41-.19-.55-29.89Zm590.93-82.42-9.31.17.57,31,9.28-1.34ZM735,300.6l1.71.19L736.14,272l-1.71,0ZM334.19,278.34l-10.6,8.7,20.31-.37ZM437,375.75l5.47-5.11c-1.65-.82-3.39-2.42-4.95-2.26-2.16.23-4.18,1.79-6.26,2.78Z"/></g></g></svg>